<svg width="580" height="380" viewBox="0 0 580 380" fill="none" xmlns="http://www.w3.org/2000/svg">
<g clip-path="url(#clip0_4_320)">
<path d="M153.945 87.3443L84.9479 79.7697L98.9107 21.5406L173.03 33.5927L153.945 87.3443Z" fill="#2F2E41"/>
<path d="M87.6196 339.254V99.0375C87.6196 94.6844 91.92 91.1427 97.2067 91.1427H570.413C575.699 91.1427 580 94.6844 580 99.0375V339.254C580 343.607 575.699 347.149 570.413 347.149H97.2067C91.92 347.149 87.6196 343.607 87.6196 339.254ZM578.263 99.0375C578.263 95.4672 574.748 92.5729 570.413 92.5729H97.2067C92.8711 92.5729 89.3564 95.4672 89.3564 99.0375V339.254C89.3564 342.824 92.8711 345.719 97.2067 345.719H433.559C513.477 345.719 578.263 292.369 578.263 226.559V99.0375Z" fill="#3F3D56"/>
<path d="M532.09 127.11L524.943 124.322C527.874 127.691 530.4 132.952 531.752 137.138C534.042 133.238 537.733 128.467 541.386 125.617L533.833 127.217C538.487 108.433 555.993 94.9473 576.04 94.9473L576.324 94.2688C555.384 94.2688 536.842 107.567 532.09 127.11V127.11Z" fill="#3F3D56"/>
<path d="M564.984 155.731H519.827C517.912 155.731 516.354 154.448 516.354 152.87C516.354 151.293 517.912 150.01 519.827 150.01H564.984C566.899 150.01 568.457 151.293 568.457 152.87C568.457 154.448 566.899 155.731 564.984 155.731Z" fill="#09c184"/>
<path d="M430.912 177.215V253.015C430.912 259.719 424.289 265.172 416.149 265.172H324.099C315.959 265.172 309.336 259.719 309.336 253.015V177.215C309.336 170.511 315.959 165.058 324.099 165.058H416.149C424.289 165.058 430.912 170.511 430.912 177.215ZM410.439 263.742C420.786 263.742 429.175 256.834 429.175 248.313V214.8C429.175 188.118 402.908 166.488 370.507 166.488H324.099C316.905 166.488 311.073 171.291 311.073 177.215V242.44C311.073 254.205 322.655 263.742 336.942 263.742H410.439V263.742Z" fill="#3F3D56"/>
<path d="M382.378 196.016H352.661C351.911 196.016 351.302 195.514 351.302 194.897C351.302 194.281 351.911 193.779 352.661 193.779H382.378C383.127 193.779 383.736 194.281 383.736 194.897C383.736 195.514 383.127 196.016 382.378 196.016V196.016Z" fill="#3F3D56"/>
<path d="M382.378 219.875H352.661C351.911 219.875 351.302 219.373 351.302 218.756C351.302 218.139 351.911 217.637 352.661 217.637H382.378C383.127 217.637 383.736 218.139 383.736 218.756C383.736 219.373 383.127 219.875 382.378 219.875V219.875Z" fill="#3F3D56"/>
<path d="M367.615 252.769H337.898C337.149 252.769 336.539 252.267 336.539 251.65C336.539 251.033 337.149 250.532 337.898 250.532H367.615C368.364 250.532 368.973 251.033 368.973 251.65C368.973 252.267 368.364 252.769 367.615 252.769V252.769Z" fill="#3F3D56"/>
<path d="M398.324 207.953H336.714C335.965 207.953 335.355 207.451 335.355 206.834C335.355 206.218 335.965 205.716 336.714 205.716H398.324C399.073 205.716 399.683 206.218 399.683 206.834C399.683 207.451 399.073 207.953 398.324 207.953V207.953Z" fill="#3F3D56"/>
<path d="M159.455 216.404H57.6137C66.1498 200.718 71.3978 185.78 63.1939 173.898L159.455 169.302C154.644 185.343 154.056 201.085 159.455 216.404Z" fill="#FFB6B6"/>
<path d="M194.529 347.149H119.66C119.118 347.149 118.624 346.894 118.388 346.493L117.932 345.719L107.983 328.901C107.342 327.818 105.371 328.152 105.3 329.355L104.341 345.719L104.322 346.043C104.284 346.662 103.663 347.149 102.91 347.149H29.1952C28.4503 347.149 27.8328 346.672 27.784 346.06C27.7749 345.946 27.766 345.832 27.7577 345.719C23.051 285.9 39.976 245.354 49.9018 227.212L49.9105 227.205C53.8095 220.068 56.6405 216.4 56.6405 216.4L57.6218 216.393H57.6305L77.4559 216.107H77.4646L95.0236 215.863L108.293 215.685L113.616 215.606H113.625L116.959 215.563L133.537 215.327L148.343 215.12L158.972 214.977H159.268L160.848 220.59V220.597L160.909 220.848V220.855L161.178 221.777L161.187 221.806L161.725 223.744V223.758L161.76 223.865V223.873L161.89 224.337L161.899 224.359L163.149 228.814L165.173 236.058L167.839 245.533L171.199 257.561L172.901 263.618L175.237 271.963L195.905 345.719C196.114 346.449 195.441 347.149 194.529 347.149H194.529Z" fill="#2F2E41"/>
<path d="M144.752 76.7188L104.223 75.5542L88.2024 93.2448L79.7728 94.7522C67.1366 97.0117 58.4683 106.609 59.4752 117.224L63.3045 190.771L65.0413 199.352L160.565 212.224L182.044 100.92L153.781 92.5587L144.752 76.7188V76.7188Z" fill="#09c184"/>
<path d="M129.961 73.9291C150.053 73.9291 166.341 60.5166 166.341 43.9716C166.341 27.4265 150.053 14.0141 129.961 14.0141C109.869 14.0141 93.5818 27.4265 93.5818 43.9716C93.5818 60.5166 109.869 73.9291 129.961 73.9291Z" fill="#FFB6B6"/>
<path d="M535.092 344.368L503.553 334.716C498.823 333.268 496.404 328.921 498.162 325.026L529.147 256.369C530.905 252.473 536.184 250.482 540.914 251.93L572.453 261.581C577.184 263.029 579.602 267.376 577.844 271.271C565.989 299.022 553.056 330.203 546.859 339.928C545.101 343.824 539.823 345.815 535.092 344.368V344.368Z" fill="#3F3D56"/>
<path d="M570.075 289.596C569.875 289.534 569.652 289.619 569.577 289.784L565.261 299.347C565.187 299.512 565.289 299.696 565.489 299.757C565.689 299.818 565.913 299.734 565.987 299.569L570.303 290.006C570.377 289.841 570.275 289.657 570.075 289.596Z" fill="#3F3D56"/>
<path d="M577.028 271.022L546.043 339.677C544.513 343.068 540.057 344.861 535.907 343.836L535.906 343.835C535.844 343.82 535.783 343.804 535.721 343.787C535.612 343.759 535.504 343.728 535.395 343.694C535.395 343.694 535.007 343.548 534.297 343.28C533.581 343.01 532.539 342.614 531.241 342.117C530.852 341.969 530.442 341.811 530.009 341.644C529.146 341.313 528.2 340.948 527.186 340.553C526.782 340.397 526.364 340.233 525.937 340.067C523.756 339.217 521.316 338.258 518.749 337.231C518.315 337.059 517.877 336.884 517.437 336.707C517.322 336.66 498.618 326.075 498.98 325.274L529.964 256.619C531.557 253.088 536.324 251.289 540.612 252.602L545.247 254.02C545.987 254.247 546.368 254.904 546.157 255.532C546.144 255.574 546.131 255.616 546.122 255.659C545.981 256.311 546.469 256.945 547.224 257.176L563.514 262.162C564.269 262.393 565.142 262.175 565.552 261.605C565.579 261.567 565.603 261.529 565.627 261.49C565.965 260.901 566.774 260.608 567.515 260.835L572.149 262.253C576.438 263.565 578.621 267.491 577.028 271.022V271.022Z" fill="#09c184"/>
<path d="M523.994 267.33C523.794 267.269 523.57 267.353 523.496 267.518L522.417 269.909C522.343 270.074 522.445 270.257 522.645 270.319C522.845 270.38 523.069 270.296 523.143 270.131L524.222 267.74C524.296 267.575 524.194 267.391 523.994 267.33Z" fill="#3F3D56"/>
<path d="M520.757 274.503C520.557 274.442 520.333 274.526 520.259 274.691L518.168 279.323C518.094 279.488 518.196 279.672 518.396 279.733C518.597 279.794 518.82 279.71 518.894 279.545L520.985 274.913C521.059 274.748 520.957 274.564 520.757 274.503Z" fill="#3F3D56"/>
<path d="M517.789 281.078C517.589 281.017 517.366 281.101 517.292 281.266L515.201 285.898C515.127 286.063 515.229 286.247 515.429 286.308C515.629 286.369 515.853 286.285 515.927 286.12L518.018 281.488C518.092 281.323 517.99 281.139 517.789 281.078Z" fill="#3F3D56"/>
<path d="M544.646 255.027L537.709 252.905C537.671 252.893 537.627 252.909 537.613 252.941L537.328 253.572C537.314 253.604 537.333 253.64 537.372 253.652L544.309 255.775C544.348 255.786 544.391 255.77 544.405 255.738L544.69 255.107C544.705 255.075 544.685 255.039 544.646 255.027Z" fill="#E6E6E6"/>
<path d="M568.122 263.019C568.55 263.019 568.896 262.734 568.896 262.382C568.896 262.03 568.55 261.744 568.122 261.744C567.694 261.744 567.348 262.03 567.348 262.382C567.348 262.734 567.694 263.019 568.122 263.019Z" fill="#E6E6E6"/>
<path d="M570.118 263.63C570.546 263.63 570.892 263.345 570.892 262.993C570.892 262.641 570.546 262.355 570.118 262.355C569.69 262.355 569.344 262.641 569.344 262.993C569.344 263.345 569.69 263.63 570.118 263.63Z" fill="#E6E6E6"/>
<path d="M572.114 264.241C572.542 264.241 572.889 263.956 572.889 263.604C572.889 263.251 572.542 262.966 572.114 262.966C571.686 262.966 571.34 263.251 571.34 263.604C571.34 263.956 571.686 264.241 572.114 264.241Z" fill="#E6E6E6"/>
<path d="M457.764 127.569H430.529C427.024 127.569 424.173 125.222 424.173 122.336V97.0481C424.173 94.1622 427.024 91.8144 430.529 91.8144H457.764C461.268 91.8144 464.12 94.1622 464.12 97.0481V122.336C464.12 125.222 461.268 127.569 457.764 127.569Z" fill="white"/>
<path d="M457.764 127.569H430.529C427.024 127.569 424.173 125.222 424.173 122.336C422.804 113.024 422.427 104.352 424.173 97.0482C424.173 94.1623 427.024 91.8145 430.529 91.8145H457.764C461.268 91.8145 464.119 94.1623 464.119 97.0482V122.336C464.119 125.222 461.268 127.569 457.764 127.569V127.569ZM430.529 92.5295C427.503 92.5295 425.042 94.5565 425.042 97.0482V122.336C425.042 124.827 427.503 126.854 430.529 126.854H457.764C460.79 126.854 463.251 124.827 463.251 122.336V97.0482C463.251 94.5565 460.79 92.5295 457.764 92.5295H430.529Z" fill="#3F3D56"/>
<path d="M455.012 107.189H432.572C431.62 107.189 430.845 106.551 430.845 105.768C430.845 104.984 431.62 104.346 432.572 104.346H455.012C455.964 104.346 456.738 104.984 456.738 105.768C456.738 106.551 455.964 107.189 455.012 107.189Z" fill="#09c184"/>
<path d="M455.012 115.055H432.572C431.62 115.055 430.845 114.418 430.845 113.634C430.845 112.85 431.62 112.212 432.572 112.212H455.012C455.964 112.212 456.738 112.85 456.738 113.634C456.738 114.418 455.964 115.055 455.012 115.055Z" fill="#09c184"/>
<path d="M455.012 99.323H432.572C431.62 99.323 430.845 98.6853 430.845 97.9015C430.845 97.1178 431.62 96.4801 432.572 96.4801H455.012C455.964 96.4801 456.738 97.1178 456.738 97.9015C456.738 98.6853 455.964 99.323 455.012 99.323Z" fill="#09c184"/>
<path d="M117.592 83.2555C119.585 86.3501 122.262 88.8173 125.1 90.4135L141.829 120.881L159.202 113.902L140.362 83.7471C140.348 80.9169 139.369 77.7081 137.376 74.6135C132.822 67.5439 124.701 63.7475 119.238 66.1339C113.775 68.5204 113.038 76.1859 117.592 83.2555L117.592 83.2555Z" fill="#FFB6B6"/>
<path d="M155.26 102.46C155.26 102.46 180.74 91.4645 188.646 103.009C195.391 112.859 200.265 162.149 201.55 176.407C201.776 178.91 200.983 181.395 199.296 183.485V183.485C194.299 189.674 183.527 190.264 177.579 184.675L125.948 100.96L150.438 91.3755L156.428 103.321L155.26 102.46V102.46Z" fill="#09c184"/>
<path d="M209.735 220.395C210.294 219.743 210.624 218.947 210.624 218.087V144.722C210.624 142.508 208.445 140.714 205.756 140.714H71.0853C68.3968 140.714 66.2173 142.508 66.2173 144.722V218.087C66.2173 218.947 66.547 219.743 67.1064 220.395H50.2869V224.241C108.765 226.935 167.521 226.935 226.555 224.241V220.395H209.735V220.395Z" fill="#3F3D56"/>
<path d="M354.425 380H327.19C323.685 380 320.834 377.652 320.834 374.766V349.479C320.834 346.593 323.685 344.245 327.19 344.245H354.425C357.929 344.245 360.78 346.593 360.78 349.479V374.766C360.78 377.652 357.929 380 354.425 380Z" fill="white"/>
<path d="M354.425 380H327.19C323.685 380 320.834 377.652 320.834 374.766C319.465 365.455 319.087 356.783 320.834 349.479C320.834 346.593 323.685 344.245 327.19 344.245H354.425C357.929 344.245 360.78 346.593 360.78 349.479V374.766C360.78 377.652 357.929 380 354.425 380V380ZM327.19 344.96C324.164 344.96 321.703 346.987 321.703 349.479V374.766C321.703 377.258 324.164 379.285 327.19 379.285H354.425C357.451 379.285 359.912 377.258 359.912 374.766V349.479C359.912 346.987 357.451 344.96 354.425 344.96H327.19Z" fill="#3F3D56"/>
<path d="M351.673 359.62H329.233C328.281 359.62 327.506 358.982 327.506 358.198C327.506 357.414 328.281 356.777 329.233 356.777H351.673C352.625 356.777 353.399 357.414 353.399 358.198C353.399 358.982 352.625 359.62 351.673 359.62V359.62Z" fill="#09c184"/>
<path d="M351.673 367.486H329.233C328.281 367.486 327.506 366.848 327.506 366.064C327.506 365.281 328.281 364.643 329.233 364.643H351.673C352.625 364.643 353.399 365.281 353.399 366.064C353.399 366.848 352.625 367.486 351.673 367.486V367.486Z" fill="#09c184"/>
<path d="M351.673 351.754H329.233C328.281 351.754 327.506 351.116 327.506 350.332C327.506 349.548 328.281 348.911 329.233 348.911H351.673C352.625 348.911 353.399 349.548 353.399 350.332C353.399 351.116 352.625 351.754 351.673 351.754V351.754Z" fill="#09c184"/>
<path d="M116.833 210.689C112.579 210.707 108.683 211.516 105.649 212.846L65.1114 210.914L64.5596 226.825L105.74 227.071C108.791 228.375 112.697 229.149 116.951 229.13C126.669 229.088 134.521 224.926 134.488 219.833C134.455 214.741 126.551 210.647 116.833 210.689H116.833Z" fill="#FFB6B6"/>
<path d="M77.8857 94.8068C77.8857 94.8068 43.4257 91.6449 34.6475 109.249C27.9418 122.697 10.5209 175.11 0.745014 205.118C-2.82908 216.089 6.88747 226.952 20.6705 227.401L81.5408 229.386L85.0616 207.212L41.5946 201.497L65.9097 141.429L77.8857 94.8068V94.8068Z" fill="#09c184"/>
<path d="M166.35 20.844C168.099 13.5486 157.363 10.7151 149.322 7.33003L142.496 2.57548C135.339 -0.437506 126.971 -0.824947 119.449 1.50842L95.9751 7.94297C85.32 11.2484 81.602 19.1167 75.4621 27.0127L65.17 38.3273C59.1257 46.1003 60.9327 58.2356 62.3501 67.3915L62.9441 71.2282L57.2893 82.3635L100.748 88.7525L109.507 71.568L104.041 63.4004C102.101 60.5024 102.877 56.883 105.905 54.7073L105.905 54.7073C116.795 46.8809 118.882 33.4486 118.882 33.4486L128.088 40.1343C134.779 42.2014 140.955 43.2672 146.626 43.3481C152.863 43.4371 158.488 42.3348 163.512 40.0631L164.396 51.1405C161.799 64.2358 157.923 67.1154 140.46 77.1336L161.478 94.3916L162.463 87.3639C164.806 70.6461 174.93 59.0107 177.67 45.5602C179.566 36.2595 175.191 26.839 166.35 20.8441H166.35V20.844Z" fill="#2F2E41"/>
</g>
<defs>
<clipPath id="clip0_4_320">
<rect width="580" height="380" fill="white"/>
</clipPath>
</defs>
</svg>
